<?plantuml 1.2026.1?><svg xmlns="http://www.w3.org/2000/svg" xmlns:xlink="http://www.w3.org/1999/xlink" contentStyleType="text/css" data-diagram-type="DESCRIPTION" height="1435px" preserveAspectRatio="none" style="width:2412px;height:1435px;background:#FFFFFF;" version="1.1" viewBox="0 0 2412 1435" width="2412px" zoomAndPan="magnify"><title>Diagrama de Namespaces - DV_C5_Juego</title><defs/><g><g class="title" data-source-line="1"><text fill="#000000" font-family="sans-serif" font-size="14" font-weight="bold" lengthAdjust="spacing" textLength="280.123" x="1058.9692" y="24.5332">Diagrama de Namespaces - DV_C5_Juego</text></g><!--entity ns_Assets_VFXPACK_IMPACT_WALLCOEUR_Scripts--><g class="entity" data-qualified-name="ns_Assets_VFXPACK_IMPACT_WALLCOEUR_Scripts" data-source-line="5" id="ent0002"><path d="M8.5,1369.9658 L381.6924,1369.9658 A3.75,3.75 0 0 1 384.1924,1372.4658 L391.1924,1393.5752 L406.9268,1393.5752 A2.5,2.5 0 0 1 409.4268,1396.0752 L409.4268,1425.6846 A2.5,2.5 0 0 1 406.9268,1428.1846 L8.5,1428.1846 A2.5,2.5 0 0 1 6,1425.6846 L6,1372.4658 A2.5,2.5 0 0 1 8.5,1369.9658" fill="#F1F1F1" style="stroke:#181818;stroke-width:0.5;"/><line style="stroke:#181818;stroke-width:0.5;" x1="6" x2="391.1924" y1="1393.5752" y2="1393.5752"/><text fill="#000000" font-family="sans-serif" font-size="14" font-weight="bold" lengthAdjust="spacing" textLength="360.1924" x="16" y="1387.499">ns_Assets_VFXPACK_IMPACT_WALLCOEUR_Scripts</text><text fill="#000000" font-family="sans-serif" font-size="14" lengthAdjust="spacing" textLength="373.4268" x="16" y="1415.1084">Assets.VFXPACK_IMPACT_WALLCOEUR.Scripts  (2 tipos)</text></g><!--entity ns_Fusion--><g class="entity" data-qualified-name="ns_Fusion" data-source-line="6" id="ent0003"><path d="M141,1276.9658 L224.0068,1276.9658 A3.75,3.75 0 0 1 226.5068,1279.4658 L233.5068,1300.5752 L274.1582,1300.5752 A2.5,2.5 0 0 1 276.6582,1303.0752 L276.6582,1332.6846 A2.5,2.5 0 0 1 274.1582,1335.1846 L141,1335.1846 A2.5,2.5 0 0 1 138.5,1332.6846 L138.5,1279.4658 A2.5,2.5 0 0 1 141,1276.9658" fill="#F1F1F1" style="stroke:#181818;stroke-width:0.5;"/><line style="stroke:#181818;stroke-width:0.5;" x1="138.5" x2="233.5068" y1="1300.5752" y2="1300.5752"/><text fill="#000000" font-family="sans-serif" font-size="14" font-weight="bold" lengthAdjust="spacing" textLength="70.0068" x="148.5" y="1294.499">ns_Fusion</text><text fill="#000000" font-family="sans-serif" font-size="14" lengthAdjust="spacing" textLength="108.1582" x="148.5" y="1322.1084">Fusion  (53 tipos)</text></g><!--entity ns_Fusion_CodeGen--><g class="entity" data-qualified-name="ns_Fusion_CodeGen" data-source-line="7" id="ent0004"><path d="M113,1183.9658 L266.0205,1183.9658 A3.75,3.75 0 0 1 268.5205,1186.4658 L275.5205,1207.5752 L302.1924,1207.5752 A2.5,2.5 0 0 1 304.6924,1210.0752 L304.6924,1239.6846 A2.5,2.5 0 0 1 302.1924,1242.1846 L113,1242.1846 A2.5,2.5 0 0 1 110.5,1239.6846 L110.5,1186.4658 A2.5,2.5 0 0 1 113,1183.9658" fill="#F1F1F1" style="stroke:#181818;stroke-width:0.5;"/><line style="stroke:#181818;stroke-width:0.5;" x1="110.5" x2="275.5205" y1="1207.5752" y2="1207.5752"/><text fill="#000000" font-family="sans-serif" font-size="14" font-weight="bold" lengthAdjust="spacing" textLength="140.0205" x="120.5" y="1201.499">ns_Fusion_CodeGen</text><text fill="#000000" font-family="sans-serif" font-size="14" lengthAdjust="spacing" textLength="164.1924" x="120.5" y="1229.1084">Fusion.CodeGen  (1 tipos)</text></g><!--entity ns_Fusion_Editor--><g class="entity" data-qualified-name="ns_Fusion_Editor" data-source-line="8" id="ent0005"><path d="M1954.5,1226.9658 L2085.7344,1226.9658 A3.75,3.75 0 0 1 2088.2344,1229.4658 L2095.2344,1250.5752 L2135.9063,1250.5752 A2.5,2.5 0 0 1 2138.4063,1253.0752 L2138.4063,1282.6846 A2.5,2.5 0 0 1 2135.9063,1285.1846 L1954.5,1285.1846 A2.5,2.5 0 0 1 1952,1282.6846 L1952,1229.4658 A2.5,2.5 0 0 1 1954.5,1226.9658" fill="#F1F1F1" style="stroke:#181818;stroke-width:0.5;"/><line style="stroke:#181818;stroke-width:0.5;" x1="1952" x2="2095.2344" y1="1250.5752" y2="1250.5752"/><text fill="#000000" font-family="sans-serif" font-size="14" font-weight="bold" lengthAdjust="spacing" textLength="118.2344" x="1962" y="1244.499">ns_Fusion_Editor</text><text fill="#000000" font-family="sans-serif" font-size="14" lengthAdjust="spacing" textLength="156.4063" x="1962" y="1272.1084">Fusion.Editor  (220 tipos)</text></g><!--entity ns_Fusion_Statistics--><g class="entity" data-qualified-name="ns_Fusion_Statistics" data-source-line="9" id="ent0006"><path d="M2209.5,1284.9658 L2362.541,1284.9658 A3.75,3.75 0 0 1 2365.041,1287.4658 L2372.041,1308.5752 L2402.5615,1308.5752 A2.5,2.5 0 0 1 2405.0615,1311.0752 L2405.0615,1340.6846 A2.5,2.5 0 0 1 2402.5615,1343.1846 L2209.5,1343.1846 A2.5,2.5 0 0 1 2207,1340.6846 L2207,1287.4658 A2.5,2.5 0 0 1 2209.5,1284.9658" fill="#F1F1F1" style="stroke:#181818;stroke-width:0.5;"/><line style="stroke:#181818;stroke-width:0.5;" x1="2207" x2="2372.041" y1="1308.5752" y2="1308.5752"/><text fill="#000000" font-family="sans-serif" font-size="14" font-weight="bold" lengthAdjust="spacing" textLength="140.041" x="2217" y="1302.499">ns_Fusion_Statistics</text><text fill="#000000" font-family="sans-serif" font-size="14" lengthAdjust="spacing" textLength="168.0615" x="2217" y="1330.1084">Fusion.Statistics  (19 tipos)</text></g><!--entity ns_Game_Core--><g class="entity" data-qualified-name="ns_Game_Core" data-source-line="10" id="ent0007"><path d="M1967,197.9658 L2082.7168,197.9658 A3.75,3.75 0 0 1 2085.2168,200.4658 L2092.2168,221.5752 L2122.71,221.5752 A2.5,2.5 0 0 1 2125.21,224.0752 L2125.21,253.6846 A2.5,2.5 0 0 1 2122.71,256.1846 L1967,256.1846 A2.5,2.5 0 0 1 1964.5,253.6846 L1964.5,200.4658 A2.5,2.5 0 0 1 1967,197.9658" fill="#F1F1F1" style="stroke:#181818;stroke-width:0.5;"/><line style="stroke:#181818;stroke-width:0.5;" x1="1964.5" x2="2092.2168" y1="221.5752" y2="221.5752"/><text fill="#000000" font-family="sans-serif" font-size="14" font-weight="bold" lengthAdjust="spacing" textLength="102.7168" x="1974.5" y="215.499">ns_Game_Core</text><text fill="#000000" font-family="sans-serif" font-size="14" lengthAdjust="spacing" textLength="130.71" x="1974.5" y="243.1084">Game.Core  (1 tipos)</text></g><!--entity ns_Game_MVC--><g class="entity" data-qualified-name="ns_Game_MVC" data-source-line="11" id="ent0008"><path d="M964.5,467.9658 L1079.4307,467.9658 A3.75,3.75 0 0 1 1081.9307,470.4658 L1088.9307,491.5752 L1120.9756,491.5752 A2.5,2.5 0 0 1 1123.4756,494.0752 L1123.4756,523.6846 A2.5,2.5 0 0 1 1120.9756,526.1846 L964.5,526.1846 A2.5,2.5 0 0 1 962,523.6846 L962,470.4658 A2.5,2.5 0 0 1 964.5,467.9658" fill="#F1F1F1" style="stroke:#181818;stroke-width:0.5;"/><line style="stroke:#181818;stroke-width:0.5;" x1="962" x2="1088.9307" y1="491.5752" y2="491.5752"/><text fill="#000000" font-family="sans-serif" font-size="14" font-weight="bold" lengthAdjust="spacing" textLength="101.9307" x="972" y="485.499">ns_Game_MVC</text><text fill="#000000" font-family="sans-serif" font-size="14" lengthAdjust="spacing" textLength="131.4756" x="972" y="513.1084">Game.MVC  (8 tipos)</text></g><!--entity ns_Game_Sensors--><g class="entity" data-qualified-name="ns_Game_Sensors" data-source-line="12" id="ent0009"><path d="M1956.5,341.9658 L2095.5684,341.9658 A3.75,3.75 0 0 1 2098.0684,344.4658 L2105.0684,365.5752 L2133.2236,365.5752 A2.5,2.5 0 0 1 2135.7236,368.0752 L2135.7236,397.6846 A2.5,2.5 0 0 1 2133.2236,400.1846 L1956.5,400.1846 A2.5,2.5 0 0 1 1954,397.6846 L1954,344.4658 A2.5,2.5 0 0 1 1956.5,341.9658" fill="#F1F1F1" style="stroke:#181818;stroke-width:0.5;"/><line style="stroke:#181818;stroke-width:0.5;" x1="1954" x2="2105.0684" y1="365.5752" y2="365.5752"/><text fill="#000000" font-family="sans-serif" font-size="14" font-weight="bold" lengthAdjust="spacing" textLength="126.0684" x="1964" y="359.499">ns_Game_Sensors</text><text fill="#000000" font-family="sans-serif" font-size="14" lengthAdjust="spacing" textLength="151.7236" x="1964" y="387.1084">Game.Sensors  (4 tipos)</text></g><!--entity ns_Game_Squad--><g class="entity" data-qualified-name="ns_Game_Squad" data-source-line="13" id="ent0010"><path d="M480.5,816.9658 L607.0996,816.9658 A3.75,3.75 0 0 1 609.5996,819.4658 L616.5996,840.5752 L654.1338,840.5752 A2.5,2.5 0 0 1 656.6338,843.0752 L656.6338,872.6846 A2.5,2.5 0 0 1 654.1338,875.1846 L480.5,875.1846 A2.5,2.5 0 0 1 478,872.6846 L478,819.4658 A2.5,2.5 0 0 1 480.5,816.9658" fill="#F1F1F1" style="stroke:#181818;stroke-width:0.5;"/><line style="stroke:#181818;stroke-width:0.5;" x1="478" x2="616.5996" y1="840.5752" y2="840.5752"/><text fill="#000000" font-family="sans-serif" font-size="14" font-weight="bold" lengthAdjust="spacing" textLength="113.5996" x="488" y="834.499">ns_Game_Squad</text><text fill="#000000" font-family="sans-serif" font-size="14" lengthAdjust="spacing" textLength="148.6338" x="488" y="862.1084">Game.Squad  (11 tipos)</text></g><!--entity ns_USP_Core--><g class="entity" data-qualified-name="ns_USP_Core" data-source-line="14" id="ent0011"><path d="M1194.5,646.9658 L1300.0928,646.9658 A3.75,3.75 0 0 1 1302.5928,649.4658 L1309.5928,670.5752 L1340.8721,670.5752 A2.5,2.5 0 0 1 1343.3721,673.0752 L1343.3721,702.6846 A2.5,2.5 0 0 1 1340.8721,705.1846 L1194.5,705.1846 A2.5,2.5 0 0 1 1192,702.6846 L1192,649.4658 A2.5,2.5 0 0 1 1194.5,646.9658" fill="#F1F1F1" style="stroke:#181818;stroke-width:0.5;"/><line style="stroke:#181818;stroke-width:0.5;" x1="1192" x2="1309.5928" y1="670.5752" y2="670.5752"/><text fill="#000000" font-family="sans-serif" font-size="14" font-weight="bold" lengthAdjust="spacing" textLength="92.5928" x="1202" y="664.499">ns_USP_Core</text><text fill="#000000" font-family="sans-serif" font-size="14" lengthAdjust="spacing" textLength="121.3721" x="1202" y="692.1084">USP.Core  (8 tipos)</text></g><!--entity ns_USP_Entities--><g class="entity" data-qualified-name="ns_USP_Entities" data-source-line="15" id="ent0012"><path d="M728.5,575.9658 L852.7617,575.9658 A3.75,3.75 0 0 1 855.2617,578.4658 L862.2617,599.5752 L890.4375,599.5752 A2.5,2.5 0 0 1 892.9375,602.0752 L892.9375,631.6846 A2.5,2.5 0 0 1 890.4375,634.1846 L728.5,634.1846 A2.5,2.5 0 0 1 726,631.6846 L726,578.4658 A2.5,2.5 0 0 1 728.5,575.9658" fill="#F1F1F1" style="stroke:#181818;stroke-width:0.5;"/><line style="stroke:#181818;stroke-width:0.5;" x1="726" x2="862.2617" y1="599.5752" y2="599.5752"/><text fill="#000000" font-family="sans-serif" font-size="14" font-weight="bold" lengthAdjust="spacing" textLength="111.2617" x="736" y="593.499">ns_USP_Entities</text><text fill="#000000" font-family="sans-serif" font-size="14" lengthAdjust="spacing" textLength="136.9375" x="736" y="621.1084">USP.Entities  (4 tipos)</text></g><!--entity ns_USP_Services--><g class="entity" data-qualified-name="ns_USP_Services" data-source-line="16" id="ent0013"><path d="M1960,958.9658 L2091.3027,958.9658 A3.75,3.75 0 0 1 2093.8027,961.4658 L2100.8027,982.5752 L2129.71,982.5752 A2.5,2.5 0 0 1 2132.21,985.0752 L2132.21,1014.6846 A2.5,2.5 0 0 1 2129.71,1017.1846 L1960,1017.1846 A2.5,2.5 0 0 1 1957.5,1014.6846 L1957.5,961.4658 A2.5,2.5 0 0 1 1960,958.9658" fill="#F1F1F1" style="stroke:#181818;stroke-width:0.5;"/><line style="stroke:#181818;stroke-width:0.5;" x1="1957.5" x2="2100.8027" y1="982.5752" y2="982.5752"/><text fill="#000000" font-family="sans-serif" font-size="14" font-weight="bold" lengthAdjust="spacing" textLength="118.3027" x="1967.5" y="976.499">ns_USP_Services</text><text fill="#000000" font-family="sans-serif" font-size="14" lengthAdjust="spacing" textLength="144.71" x="1967.5" y="1004.1084">USP.Services  (5 tipos)</text></g><!--entity ns_USP_UI--><g class="entity" data-qualified-name="ns_USP_UI" data-source-line="17" id="ent0014"><path d="M1663.5,399.9658 L1751.1963,399.9658 A3.75,3.75 0 0 1 1753.6963,402.4658 L1760.6963,423.5752 L1793.5273,423.5752 A2.5,2.5 0 0 1 1796.0273,426.0752 L1796.0273,455.6846 A2.5,2.5 0 0 1 1793.5273,458.1846 L1663.5,458.1846 A2.5,2.5 0 0 1 1661,455.6846 L1661,402.4658 A2.5,2.5 0 0 1 1663.5,399.9658" fill="#F1F1F1" style="stroke:#181818;stroke-width:0.5;"/><line style="stroke:#181818;stroke-width:0.5;" x1="1661" x2="1760.6963" y1="423.5752" y2="423.5752"/><text fill="#000000" font-family="sans-serif" font-size="14" font-weight="bold" lengthAdjust="spacing" textLength="74.6963" x="1671" y="417.499">ns_USP_UI</text><text fill="#000000" font-family="sans-serif" font-size="14" lengthAdjust="spacing" textLength="105.0273" x="1671" y="445.1084">USP.UI  (2 tipos)</text></g><!--entity ns_USP_Weapons--><g class="entity" data-qualified-name="ns_USP_Weapons" data-source-line="18" id="ent0015"><path d="M1414.5,499.9658 L1550.4238,499.9658 A3.75,3.75 0 0 1 1552.9238,502.4658 L1559.9238,523.5752 L1589.6719,523.5752 A2.5,2.5 0 0 1 1592.1719,526.0752 L1592.1719,555.6846 A2.5,2.5 0 0 1 1589.6719,558.1846 L1414.5,558.1846 A2.5,2.5 0 0 1 1412,555.6846 L1412,502.4658 A2.5,2.5 0 0 1 1414.5,499.9658" fill="#F1F1F1" style="stroke:#181818;stroke-width:0.5;"/><line style="stroke:#181818;stroke-width:0.5;" x1="1412" x2="1559.9238" y1="523.5752" y2="523.5752"/><text fill="#000000" font-family="sans-serif" font-size="14" font-weight="bold" lengthAdjust="spacing" textLength="122.9238" x="1422" y="517.499">ns_USP_Weapons</text><text fill="#000000" font-family="sans-serif" font-size="14" lengthAdjust="spacing" textLength="150.1719" x="1422" y="545.1084">USP.Weapons  (5 tipos)</text></g><!--entity ns__global_--><g class="entity" data-qualified-name="ns__global_" data-source-line="20" id="ent0016"><ellipse cx="1874" cy="510.9658" fill="#F1F1F1" rx="8" ry="8" style="stroke:#181818;stroke-width:0.5;"/><text fill="#000000" font-family="sans-serif" font-size="14" lengthAdjust="spacing" textLength="75.5098" x="1836.2451" y="542.499">ns__global_</text></g><!--link ns__global_ to ns_USP_Services--><g class="link" data-entity-1="ent0016" data-entity-2="ent0013" data-link-type="dependency" data-source-line="20" id="lnk17"><path d="M1879.47,520.1958 C1888.21,538.4358 1907.97,580.5158 1922,616.9658 C1970.24,742.2458 2015.1399,889.9117 2033.7799,953.0017" fill="none" id="ns__global_-to-ns_USP_Services" style="stroke:#181818;stroke-width:1;"/><polygon fill="#181818" points="2035.48,958.7558,2036.766,948.9913,2034.0633,953.9607,2029.0938,951.258,2035.48,958.7558" style="stroke:#181818;stroke-width:1;"/><text fill="#000000" font-family="sans-serif" font-size="13" lengthAdjust="spacing" textLength="7.23" x="1914" y="593.4609">2</text></g><!--link ns__global_ to ns_Game_Squad--><g class="link" data-entity-1="ent0016" data-entity-2="ent0010" data-link-type="dependency" data-source-line="21" id="lnk18"><path d="M1872.71,520.2358 C1870.96,574.2258 1860.85,846.4558 1835,871.9658 C1727.54,977.9958 1309.46,933.9658 1158.5,933.9658 C808.5,933.9658 808.5,933.9658 808.5,933.9658 C738.6,933.9658 669.1418,903.5209 621.9818,877.8909" fill="none" id="ns__global_-to-ns_Game_Squad" style="stroke:#181818;stroke-width:1;"/><polygon fill="#181818" points="616.71,875.0258,622.7076,882.8379,621.1031,877.4134,626.5277,875.8089,616.71,875.0258" style="stroke:#181818;stroke-width:1;"/><text fill="#000000" font-family="sans-serif" font-size="13" lengthAdjust="spacing" textLength="14.46" x="1260.5" y="931.4609">21</text></g><!--link ns_Game_Squad to ns__global_--><g class="link" data-entity-1="ent0010" data-entity-2="ent0016" data-link-type="dependency" data-source-line="42" id="lnk39"><path d="M657.12,845.9658 C702.41,845.9658 758.4,845.9658 808.5,845.9658 C808.5,845.9658 808.5,845.9658 1729.5,845.9658 C1875.34,845.9658 1875.0607,580.3734 1873.5207,526.2734" fill="none" id="ns_Game_Squad-to-ns__global_" style="stroke:#181818;stroke-width:1;"/><polygon fill="#181818" points="1873.35,520.2758,1869.6077,529.386,1873.4923,525.2738,1877.6045,529.1584,1873.35,520.2758" style="stroke:#181818;stroke-width:1;"/><text fill="#000000" font-family="sans-serif" font-size="13" lengthAdjust="spacing" textLength="14.46" x="1260.5" y="842.4609">14</text></g><!--link ns__global_ to ns_Game_Core--><g class="link" data-entity-1="ent0016" data-entity-2="ent0007" data-link-type="dependency" data-source-line="22" id="lnk19"><path d="M1877.46,501.8258 C1885.28,473.6858 1911.53,386.4358 1952,323.9658 C1968.28,298.8358 1987.1557,278.5338 2006.2057,260.4738" fill="none" id="ns__global_-to-ns_Game_Core" style="stroke:#181818;stroke-width:1;"/><polygon fill="#181818" points="2010.56,256.3458,2001.2766,259.635,2006.9314,259.7858,2006.7806,265.4407,2010.56,256.3458" style="stroke:#181818;stroke-width:1;"/><text fill="#000000" font-family="sans-serif" font-size="13" lengthAdjust="spacing" textLength="7.23" x="1914" y="379.4609">5</text></g><!--link ns_USP_Weapons to ns__global_--><g class="link" data-entity-1="ent0015" data-entity-2="ent0016" data-link-type="dependency" data-source-line="23" id="lnk20"><path d="M1592.1,524.6358 C1687.46,519.9958 1823.8371,513.3576 1858.9571,511.6476" fill="none" id="ns_USP_Weapons-to-ns__global_" style="stroke:#181818;stroke-width:1;"/><polygon fill="#181818" points="1864.95,511.3558,1855.7661,507.7982,1859.9559,511.599,1856.1552,515.7888,1864.95,511.3558" style="stroke:#181818;stroke-width:1;"/><text fill="#000000" font-family="sans-serif" font-size="13" lengthAdjust="spacing" textLength="7.23" x="1725" y="511.4609">5</text></g><!--link ns__global_ to ns_USP_Weapons--><g class="link" data-entity-1="ent0016" data-entity-2="ent0015" data-link-type="dependency" data-source-line="32" id="lnk29"><path d="M1864.91,516.3758 C1851.36,525.0858 1822.9,541.8358 1796,547.9658 C1728.78,563.2758 1656.7269,558.0394 1598.1269,548.8094" fill="none" id="ns__global_-to-ns_USP_Weapons" style="stroke:#181818;stroke-width:1;"/><polygon fill="#181818" points="1592.2,547.8758,1600.468,553.2274,1597.1391,548.6538,1601.7128,545.3248,1592.2,547.8758" style="stroke:#181818;stroke-width:1;"/><text fill="#000000" font-family="sans-serif" font-size="13" lengthAdjust="spacing" textLength="7.23" x="1725" y="544.4609">3</text></g><!--link ns_USP_Weapons to ns_USP_Core--><g class="link" data-entity-1="ent0015" data-entity-2="ent0011" data-link-type="dependency" data-source-line="24" id="lnk21"><path d="M1480.01,558.0158 C1458.51,585.6258 1422.55,626.1958 1382,648.9658 C1370.08,655.6558 1362.324,682.6739 1348.874,686.4739" fill="none" id="ns_USP_Weapons-to-ns_USP_Core" style="stroke:#181818;stroke-width:1;"/><polygon fill="#181818" points="1343.1,688.1052,1352.8485,689.5075,1347.9116,686.7458,1350.6734,681.8089,1343.1,688.1052" style="stroke:#181818;stroke-width:1;"/><text fill="#000000" font-family="sans-serif" font-size="13" lengthAdjust="spacing" textLength="7.23" x="1374" y="645.4609">4</text></g><!--link ns_USP_Core to ns_USP_Weapons--><g class="link" data-entity-1="ent0011" data-entity-2="ent0015" data-link-type="dependency" data-source-line="37" id="lnk34"><path d="M1314.43,670.5352 C1355.06,644.8452 1408.9689,587.1526 1449.6889,561.4026" fill="none" id="ns_USP_Core-to-ns_USP_Weapons" style="stroke:#181818;stroke-width:1;"/><polygon fill="#181818" points="1454.76,558.1958,1445.0154,559.6253,1450.5341,560.8682,1449.2912,566.3868,1454.76,558.1958" style="stroke:#181818;stroke-width:1;"/><text fill="#000000" font-family="sans-serif" font-size="13" lengthAdjust="spacing" textLength="7.23" x="1374" y="603.4609">1</text></g><!--link ns_USP_Weapons to ns_USP_Entities--><g class="link" data-entity-1="ent0015" data-entity-2="ent0012" data-link-type="dependency" data-source-line="25" id="lnk22"><path d="M1411.8,557.0358 C1344.05,576.8158 1248.17,601.5658 1162,611.9658 C1070.5,623.0058 970.6324,619.0447 899.1924,613.5647" fill="none" id="ns_USP_Weapons-to-ns_USP_Entities" style="stroke:#181818;stroke-width:1;"/><polygon fill="#181818" points="893.21,613.1058,901.8777,617.7825,898.1954,613.4882,902.4896,609.8059,893.21,613.1058" style="stroke:#181818;stroke-width:1;"/><text fill="#000000" font-family="sans-serif" font-size="13" lengthAdjust="spacing" textLength="7.23" x="1154" y="608.4609">1</text></g><!--link ns_USP_Weapons to ns_Game_MVC--><g class="link" data-entity-1="ent0015" data-entity-2="ent0008" data-link-type="dependency" data-source-line="26" id="lnk23"><path d="M1443.4,499.9558 C1424.35,491.8158 1402.71,484.0658 1382,479.9658 C1294.69,462.6958 1198.3242,494.4889 1129.2242,504.8089" fill="none" id="ns_USP_Weapons-to-ns_Game_MVC" style="stroke:#181818;stroke-width:1;"/><polygon fill="#181818" points="1123.29,505.6952,1132.7821,508.3219,1128.2352,504.9566,1131.6004,500.4097,1123.29,505.6952" style="stroke:#181818;stroke-width:1;"/><text fill="#000000" font-family="sans-serif" font-size="13" lengthAdjust="spacing" textLength="7.23" x="1264" y="467.4609">3</text></g><!--link ns_Game_MVC to ns_USP_Weapons--><g class="link" data-entity-1="ent0008" data-entity-2="ent0015" data-link-type="dependency" data-source-line="41" id="lnk38"><path d="M1123.19,502.5358 C1203.71,508.1758 1321.8746,516.4373 1405.6746,522.2973" fill="none" id="ns_Game_MVC-to-ns_USP_Weapons" style="stroke:#181818;stroke-width:1;"/><polygon fill="#181818" points="1411.66,522.7158,1402.961,518.0977,1406.6722,522.367,1402.4029,526.0783,1411.66,522.7158" style="stroke:#181818;stroke-width:1;"/><text fill="#000000" font-family="sans-serif" font-size="13" lengthAdjust="spacing" textLength="7.23" x="1264" y="504.4609">1</text></g><!--link ns_USP_Weapons to ns_USP_UI--><g class="link" data-entity-1="ent0015" data-entity-2="ent0014" data-link-type="dependency" data-source-line="27" id="lnk24"><path d="M1568.24,523.5152 C1597.75,510.3652 1627.0793,473.6975 1656.6193,460.5375" fill="none" id="ns_USP_Weapons-to-ns_USP_UI" style="stroke:#181818;stroke-width:1;"/><polygon fill="#181818" points="1662.1,458.0958,1652.2511,458.1045,1657.5327,460.1305,1655.5067,465.4121,1662.1,458.0958" style="stroke:#181818;stroke-width:1;"/><text fill="#000000" font-family="sans-serif" font-size="13" lengthAdjust="spacing" textLength="7.23" x="1623" y="470.4609">1</text></g><!--link ns_USP_UI to ns__global_--><g class="link" data-entity-1="ent0014" data-entity-2="ent0016" data-link-type="dependency" data-source-line="28" id="lnk25"><path d="M1787.09,458.0458 C1802.83,466.3858 1819.74,475.7358 1835,484.9658 C1845.53,491.3358 1852.2663,495.9563 1859.8563,501.4063" fill="none" id="ns_USP_UI-to-ns__global_" style="stroke:#181818;stroke-width:1;"/><polygon fill="#181818" points="1864.73,504.9058,1859.7525,496.4073,1860.6686,501.9895,1855.0864,502.9056,1864.73,504.9058" style="stroke:#181818;stroke-width:1;"/><text fill="#000000" font-family="sans-serif" font-size="13" lengthAdjust="spacing" textLength="7.23" x="1827" y="477.4609">1</text></g><!--link ns__global_ to ns_USP_Entities--><g class="link" data-entity-1="ent0016" data-entity-2="ent0012" data-link-type="dependency" data-source-line="29" id="lnk26"><path d="M1871.97,501.7558 C1866.53,458.3058 1837.3,275.9658 1729.5,275.9658 C1041.5,275.9658 1041.5,275.9658 1041.5,275.9658 C895.64,275.9658 835.2596,489.386 817.5396,569.906" fill="none" id="ns__global_-to-ns_USP_Entities" style="stroke:#181818;stroke-width:1;"/><polygon fill="#181818" points="816.25,575.7658,822.0909,567.8359,817.3246,570.8827,814.2778,566.1164,816.25,575.7658" style="stroke:#181818;stroke-width:1;"/><text fill="#000000" font-family="sans-serif" font-size="13" lengthAdjust="spacing" textLength="7.23" x="1374" y="272.4609">1</text></g><!--link ns_USP_Entities to ns__global_--><g class="link" data-entity-1="ent0012" data-entity-2="ent0016" data-link-type="dependency" data-source-line="36" id="lnk33"><path d="M813.29,575.8758 C823.88,483.8258 870.09,204.9658 1041.5,204.9658 C1041.5,204.9658 1041.5,204.9658 1729.5,204.9658 C1864.16,204.9658 1872.6723,444.8959 1872.9923,495.8059" fill="none" id="ns_USP_Entities-to-ns__global_" style="stroke:#181818;stroke-width:1;"/><polygon fill="#181818" points="1873.03,501.8058,1876.9734,492.7809,1872.9986,496.8059,1868.9735,492.8311,1873.03,501.8058" style="stroke:#181818;stroke-width:1;"/><text fill="#000000" font-family="sans-serif" font-size="13" lengthAdjust="spacing" textLength="7.23" x="1374" y="201.4609">1</text></g><!--link ns_USP_Services to ns_USP_Core--><g class="link" data-entity-1="ent0013" data-entity-2="ent0011" data-link-type="dependency" data-source-line="30" id="lnk27"><path d="M1957.16,987.9658 C1930.77,987.9658 1901.7,987.9658 1875,987.9658 C1501,987.9658 1501,987.9658 1501,987.9658 C1373.66,987.9658 1424.04,847.1858 1343,748.9658 C1330.32,733.6058 1319.1528,722.0848 1305.5528,709.2448" fill="none" id="ns_USP_Services-to-ns_USP_Core" style="stroke:#181818;stroke-width:1;"/><polygon fill="#181818" points="1301.19,705.1258,1304.9882,714.2128,1304.8257,708.5583,1310.4802,708.3958,1301.19,705.1258" style="stroke:#181818;stroke-width:1;"/><text fill="#000000" font-family="sans-serif" font-size="13" lengthAdjust="spacing" textLength="7.23" x="1725" y="984.4609">2</text></g><!--link ns_USP_Core to ns_USP_Services--><g class="link" data-entity-1="ent0011" data-entity-2="ent0013" data-link-type="dependency" data-source-line="38" id="lnk35"><path d="M1319.32,705.1058 C1365.26,728.6758 1435.51,757.9658 1501,757.9658 C1501,757.9658 1501,757.9658 1875,757.9658 C1973.61,757.9658 2019.508,891.1421 2035.738,953.0321" fill="none" id="ns_USP_Core-to-ns_USP_Services" style="stroke:#181818;stroke-width:1;"/><polygon fill="#181818" points="2037.26,958.8358,2038.8462,949.1155,2035.9917,953.9994,2031.1079,951.1448,2037.26,958.8358" style="stroke:#181818;stroke-width:1;"/><text fill="#000000" font-family="sans-serif" font-size="13" lengthAdjust="spacing" textLength="7.23" x="1725" y="754.4609">1</text></g><!--link ns_Game_MVC to ns__global_--><g class="link" data-entity-1="ent0008" data-entity-2="ent0016" data-link-type="dependency" data-source-line="31" id="lnk28"><path d="M1066.43,467.6858 C1103.43,424.0358 1180.88,346.9658 1266.5,346.9658 C1266.5,346.9658 1266.5,346.9658 1729.5,346.9658 C1812.35,346.9658 1856.5672,461.2955 1868.1672,495.9855" fill="none" id="ns_Game_MVC-to-ns__global_" style="stroke:#181818;stroke-width:1;"/><polygon fill="#181818" points="1870.07,501.6758,1871.0094,491.8719,1868.4844,496.9339,1863.4223,494.4089,1870.07,501.6758" style="stroke:#181818;stroke-width:1;"/><text fill="#000000" font-family="sans-serif" font-size="13" lengthAdjust="spacing" textLength="7.23" x="1498.5" y="343.4609">1</text></g><!--link ns_USP_Entities to ns_USP_Services--><g class="link" data-entity-1="ent0012" data-entity-2="ent0013" data-link-type="dependency" data-source-line="33" id="lnk30"><path d="M868.61,633.9958 C896.59,647.6058 930.77,663.7158 962,676.9658 C1128.49,747.6258 1216.22,690.9658 1343,819.9658 C1407.15,885.2358 1339.07,958.6858 1412,1013.9658 C1578.71,1140.3358 1841.6588,1066.3339 1968.1688,1019.1139" fill="none" id="ns_USP_Entities-to-ns_USP_Services" style="stroke:#181818;stroke-width:1;"/><polygon fill="#181818" points="1973.79,1017.0158,1963.9595,1016.4155,1969.1057,1018.7643,1966.7569,1023.9105,1973.79,1017.0158" style="stroke:#181818;stroke-width:1;"/><text fill="#000000" font-family="sans-serif" font-size="13" lengthAdjust="spacing" textLength="7.23" x="1498.5" y="1010.4609">1</text></g><!--link ns_USP_Services to ns_USP_Entities--><g class="link" data-entity-1="ent0013" data-entity-2="ent0012" data-link-type="dependency" data-source-line="44" id="lnk41"><path d="M2029.81,1017.1258 C2005.19,1063.0358 1949.93,1146.9658 1875,1146.9658 C1041.5,1146.9658 1041.5,1146.9658 1041.5,1146.9658 C928.98,1146.9658 840.462,752.5642 817.442,639.9842" fill="none" id="ns_USP_Services-to-ns_USP_Entities" style="stroke:#181818;stroke-width:1;"/><polygon fill="#181818" points="816.24,634.1058,814.1241,643.7247,817.2417,639.0045,821.9619,642.122,816.24,634.1058" style="stroke:#181818;stroke-width:1;"/><text fill="#000000" font-family="sans-serif" font-size="13" lengthAdjust="spacing" textLength="7.23" x="1498.5" y="1143.4609">1</text></g><!--link ns_USP_Entities to ns_USP_Core--><g class="link" data-entity-1="ent0012" data-entity-2="ent0011" data-link-type="dependency" data-source-line="34" id="lnk31"><path d="M893.15,632.1158 C915.3,638.5258 939.39,644.7258 962,648.9658 C1039.59,663.5258 1123.8275,669.9861 1185.8075,673.0861" fill="none" id="ns_USP_Entities-to-ns_USP_Core" style="stroke:#181818;stroke-width:1;"/><polygon fill="#181818" points="1191.8,673.3858,1183.0111,668.9412,1186.8062,673.1361,1182.6114,676.9312,1191.8,673.3858" style="stroke:#181818;stroke-width:1;"/><text fill="#000000" font-family="sans-serif" font-size="13" lengthAdjust="spacing" textLength="7.23" x="1039" y="645.4609">2</text></g><!--link ns_USP_Entities to ns_Game_MVC--><g class="link" data-entity-1="ent0012" data-entity-2="ent0008" data-link-type="dependency" data-source-line="35" id="lnk32"><path d="M875.59,599.4852 C893.88,591.2052 913.76,558.5058 932,549.9658 C948.35,542.3058 960.6,536.4711 976.85,528.6011" fill="none" id="ns_USP_Entities-to-ns_Game_MVC" style="stroke:#181818;stroke-width:1;"/><polygon fill="#181818" points="982.25,525.9858,972.4064,526.3087,977.75,528.1652,975.8935,533.5088,982.25,525.9858" style="stroke:#181818;stroke-width:1;"/><text fill="#000000" font-family="sans-serif" font-size="13" lengthAdjust="spacing" textLength="7.23" x="924" y="546.4609">3</text></g><!--link ns_Game_MVC to ns_USP_Entities--><g class="link" data-entity-1="ent0008" data-entity-2="ent0012" data-link-type="dependency" data-source-line="40" id="lnk37"><path d="M961.78,513.7758 C948.55,517.7058 935.19,522.4058 923,527.9658 C895.44,540.5458 872.0907,560.5532 850.8607,576.6532" fill="none" id="ns_Game_MVC-to-ns_USP_Entities" style="stroke:#181818;stroke-width:1;"/><polygon fill="#181818" points="846.08,580.2788,855.6681,578.0276,850.064,577.2575,850.8341,571.6533,846.08,580.2788" style="stroke:#181818;stroke-width:1;"/><text fill="#000000" font-family="sans-serif" font-size="13" lengthAdjust="spacing" textLength="7.23" x="924" y="522.4609">1</text></g><!--link ns_Game_MVC to ns_USP_Core--><g class="link" data-entity-1="ent0008" data-entity-2="ent0011" data-link-type="dependency" data-source-line="39" id="lnk36"><path d="M1083.51,525.9858 C1106.72,543.0658 1136.34,565.3158 1162,585.9658 C1186.44,605.6258 1208.7236,624.7745 1229.0636,642.6545" fill="none" id="ns_Game_MVC-to-ns_USP_Core" style="stroke:#181818;stroke-width:1;"/><polygon fill="#181818" points="1233.57,646.6158,1229.4513,637.6695,1229.8147,643.3147,1224.1695,643.678,1233.57,646.6158" style="stroke:#181818;stroke-width:1;"/><text fill="#000000" font-family="sans-serif" font-size="13" lengthAdjust="spacing" textLength="7.23" x="1154" y="578.4609">2</text></g><!--link ns__global_ to ns_Game_Sensors--><g class="link" data-entity-1="ent0016" data-entity-2="ent0009" data-link-type="dependency" data-source-line="43" id="lnk40"><path d="M1883.15,504.2158 C1905.5,485.6958 1964.1494,437.1133 2004.3494,403.8133" fill="none" id="ns__global_-to-ns_Game_Sensors" style="stroke:#181818;stroke-width:1;"/><polygon fill="#181818" points="2008.97,399.9858,1999.4874,402.6467,2005.1195,403.1754,2004.5908,408.8075,2008.97,399.9858" style="stroke:#181818;stroke-width:1;"/><text fill="#000000" font-family="sans-serif" font-size="13" lengthAdjust="spacing" textLength="7.23" x="1914" y="470.4609">2</text></g><!--link ns_Game_Squad to ns_Game_Sensors--><g class="link" data-entity-1="ent0010" data-entity-2="ent0009" data-link-type="dependency" data-source-line="45" id="lnk42"><path d="M571.8,816.7258 C587.73,682.7458 661.91,133.9658 808.5,133.9658 C808.5,133.9658 808.5,133.9658 1875,133.9658 C1945.62,133.9658 1910.4,215.8958 1952,272.9658 C1970.14,297.8558 1989.7703,318.9204 2008.6603,337.5704" fill="none" id="ns_Game_Squad-to-ns_Game_Sensors" style="stroke:#181818;stroke-width:1;"/><polygon fill="#181818" points="2012.93,341.7858,2009.3358,332.6162,2009.3719,338.273,2003.7152,338.3091,2012.93,341.7858" style="stroke:#181818;stroke-width:1;"/><text fill="#000000" font-family="sans-serif" font-size="13" lengthAdjust="spacing" textLength="7.23" x="1374" y="130.4609">3</text></g><!--link ns_Game_Squad to ns_Game_Core--><g class="link" data-entity-1="ent0010" data-entity-2="ent0007" data-link-type="dependency" data-source-line="46" id="lnk43"><path d="M570.95,816.6958 C583.66,674.5558 647.66,62.9658 808.5,62.9658 C808.5,62.9658 808.5,62.9658 1875,62.9658 C1951.45,62.9658 2003.6637,145.131 2027.7237,192.301" fill="none" id="ns_Game_Squad-to-ns_Game_Core" style="stroke:#181818;stroke-width:1;"/><polygon fill="#181818" points="2030.45,197.6458,2029.9239,187.811,2028.1781,193.1918,2022.7974,191.446,2030.45,197.6458" style="stroke:#181818;stroke-width:1;"/><text fill="#000000" font-family="sans-serif" font-size="13" lengthAdjust="spacing" textLength="7.23" x="1374" y="59.4609">1</text></g><!--link ns_Game_Squad to ns_USP_Entities--><g class="link" data-entity-1="ent0010" data-entity-2="ent0012" data-link-type="dependency" data-source-line="47" id="lnk44"><path d="M597.45,816.8958 C643.58,770.5758 729.0161,684.7772 775.2161,638.3872" fill="none" id="ns_Game_Squad-to-ns_USP_Entities" style="stroke:#181818;stroke-width:1;"/><polygon fill="#181818" points="779.45,634.1358,770.2649,637.6902,775.9217,637.6786,775.9333,643.3354,779.45,634.1358" style="stroke:#181818;stroke-width:1;"/><text fill="#000000" font-family="sans-serif" font-size="13" lengthAdjust="spacing" textLength="7.23" x="688" y="715.4609">1</text></g><!--link ns__global_ to ns_USP_Core--><g class="link" data-entity-1="ent0016" data-entity-2="ent0011" data-link-type="dependency" data-source-line="48" id="lnk45"><path d="M1864.82,519.7358 C1857.48,527.2858 1846.18,538.1658 1835,545.9658 C1819.02,557.1058 1814.29,559.2658 1796,565.9658 C1618.62,630.8858 1567.99,629.0258 1382,661.9658 C1369.49,664.1858 1362.0875,688.9831 1349.0975,690.7131" fill="none" id="ns__global_-to-ns_USP_Core" style="stroke:#181818;stroke-width:1;"/><polygon fill="#181818" points="1343.15,691.5052,1352.5993,694.2821,1348.1062,690.8451,1351.5432,686.3521,1343.15,691.5052" style="stroke:#181818;stroke-width:1;"/><text fill="#000000" font-family="sans-serif" font-size="13" lengthAdjust="spacing" textLength="7.23" x="1623" y="614.4609">1</text></g><!--link ns_Fusion to ns_Game_Squad--><g class="link" data-entity-1="ent0003" data-entity-2="ent0010" data-link-type="dependency" data-source-line="49" id="lnk46"><path d="M276.64,1306.0358 C319.27,1302.6058 372.77,1291.5058 409,1259.9658 C528.62,1155.8158 557.1836,956.7318 563.9836,880.9718" fill="none" id="ns_Fusion-to-ns_Game_Squad" style="stroke:#181818;stroke-width:1;"/><polygon fill="#181818" points="564.52,874.9958,559.7314,883.6022,564.073,879.9758,567.6994,884.3174,564.52,874.9958" style="stroke:#181818;stroke-width:1;"/><text fill="#000000" font-family="sans-serif" font-size="13" lengthAdjust="spacing" textLength="7.23" x="440" y="1222.4609">1</text></g><!--link ns_Fusion_Statistics to ns_Fusion--><g class="link" data-entity-1="ent0006" data-entity-2="ent0003" data-link-type="dependency" data-source-line="50" id="lnk47"><path d="M2246.4,1343.0758 C2194.92,1365.9458 2117.3,1393.9658 2046,1393.9658 C566.5,1393.9658 566.5,1393.9658 566.5,1393.9658 C494.17,1393.9658 479.22,1370.3358 409,1352.9658 C365.1,1342.1058 321.4662,1331.8555 282.6562,1322.8955" fill="none" id="ns_Fusion_Statistics-to-ns_Fusion" style="stroke:#181818;stroke-width:1;"/><polygon fill="#181818" points="276.81,1321.5458,284.6795,1327.4679,281.6819,1322.6706,286.4791,1319.6729,276.81,1321.5458" style="stroke:#181818;stroke-width:1;"/><text fill="#000000" font-family="sans-serif" font-size="13" lengthAdjust="spacing" textLength="7.23" x="1374" y="1390.4609">1</text></g><!--link ns_Fusion_Editor to ns_Fusion--><g class="link" data-entity-1="ent0005" data-entity-2="ent0003" data-link-type="dependency" data-source-line="51" id="lnk48"><path d="M1977.89,1285.0558 C1947.21,1296.0458 1909.88,1305.9658 1875,1305.9658 C566.5,1305.9658 566.5,1305.9658 566.5,1305.9658 C465.66,1305.9658 354.84,1305.9658 282.8,1305.9658" fill="none" id="ns_Fusion_Editor-to-ns_Fusion" style="stroke:#181818;stroke-width:1;"/><polygon fill="#181818" points="276.8,1305.9658,285.8,1309.9658,281.8,1305.9658,285.8,1301.9658,276.8,1305.9658" style="stroke:#181818;stroke-width:1;"/><text fill="#000000" font-family="sans-serif" font-size="13" lengthAdjust="spacing" textLength="14.46" x="1260.5" y="1302.4609">18</text></g><!--link ns_Fusion_Editor to ns_Game_Squad--><g class="link" data-entity-1="ent0005" data-entity-2="ent0010" data-link-type="dependency" data-source-line="52" id="lnk49"><path d="M1951.72,1240.3158 C1926.89,1237.2558 1899.98,1234.9658 1875,1234.9658 C808.5,1234.9658 808.5,1234.9658 808.5,1234.9658 C639.48,1234.9658 586.4453,971.6016 573.1053,881.1416" fill="none" id="ns_Fusion_Editor-to-ns_Game_Squad" style="stroke:#181818;stroke-width:1;"/><polygon fill="#181818" points="572.23,875.2058,569.5858,884.6931,572.9595,880.1523,577.5002,883.526,572.23,875.2058" style="stroke:#181818;stroke-width:1;"/><text fill="#000000" font-family="sans-serif" font-size="13" lengthAdjust="spacing" textLength="7.23" x="1374" y="1231.4609">2</text></g><!--link ns_Fusion_Statistics to ns_Fusion_Editor--><g class="link" data-entity-1="ent0006" data-entity-2="ent0005" data-link-type="dependency" data-source-line="53" id="lnk50"><path d="M2206.67,1291.9458 C2184.15,1286.9058 2166.1451,1282.8663 2143.8951,1277.8863" fill="none" id="ns_Fusion_Statistics-to-ns_Fusion_Editor" style="stroke:#181818;stroke-width:1;"/><polygon fill="#181818" points="2138.04,1276.5758,2145.949,1282.445,2142.9193,1277.6679,2147.6964,1274.6381,2138.04,1276.5758" style="stroke:#181818;stroke-width:1;"/><text fill="#000000" font-family="sans-serif" font-size="13" lengthAdjust="spacing" textLength="7.23" x="2169" y="1281.4609">2</text></g><!--link ns_Fusion_Editor to ns_Fusion_Statistics--><g class="link" data-entity-1="ent0005" data-entity-2="ent0006" data-link-type="dependency" data-source-line="54" id="lnk51"><path d="M2098.13,1285.0258 C2119.17,1295.2558 2144.09,1305.5558 2168,1310.9658 C2180.41,1313.7758 2187.6387,1315.0721 2200.7687,1316.1121" fill="none" id="ns_Fusion_Editor-to-ns_Fusion_Statistics" style="stroke:#181818;stroke-width:1;"/><polygon fill="#181818" points="2206.75,1316.5858,2198.0939,1311.8877,2201.7656,1316.191,2197.4623,1319.8627,2206.75,1316.5858" style="stroke:#181818;stroke-width:1;"/><text fill="#000000" font-family="sans-serif" font-size="13" lengthAdjust="spacing" textLength="7.23" x="2169" y="1307.4609">2</text></g><!--link ns__global_ to ns_Fusion_Editor--><g class="link" data-entity-1="ent0016" data-entity-2="ent0005" data-link-type="dependency" data-source-line="55" id="lnk52"><path d="M1875.5,520.0958 C1878.51,571.6058 1895.92,830.9458 1952,1033.9658 C1971.77,1105.5458 2005.8777,1179.5339 2026.4377,1221.2539" fill="none" id="ns__global_-to-ns_Fusion_Editor" style="stroke:#181818;stroke-width:1;"/><polygon fill="#181818" points="2029.09,1226.6358,2028.6996,1216.7947,2026.8798,1222.1509,2021.5236,1220.3311,2029.09,1226.6358" style="stroke:#181818;stroke-width:1;"/><text fill="#000000" font-family="sans-serif" font-size="13" lengthAdjust="spacing" textLength="7.23" x="1914" y="860.4609">5</text></g><?plantuml-src bPL1ZzCm48Nl-HMZFS6X5MaRQUa1gSfsLuLTM17QvMQPn0Hhit68NIJ-FNRh98upBd2AelUzcUUnuoYkAWOtd9OjVQ5GCFX8NvXiQCuapE3cGDA4l3-oKaJocTSDrHXezPcMB5E_jRTbkQ9rMR6eOjyLA04jBtyeABXHkAYZoF9mjP6IAJa_t7vztAGVoEv1FxwGfytzVVffk_yyp_AMDqe2l5g0uesGhw-0IgWbEJj9o4ciSsXrUvIwjwwKBBrIPyKdvwaes1qpZXWr40jCZDk2Az6Qp8itkFDCJ8oPeefBnNEpuFWjxXsWmN-djqZdRHaIrcZ4Q1x-S4WrVOtHMlBWZDLIj2RM2ZDOsJVzFDB2948ZdTJ1iSyUknNucRJaBS30srfnnHcMoHWwUMpAMFkBvoTJWfWwUMpQxv3pP_3zRWm-CTg8EbJSgb6atqbPYM-q8Z2RlVERmneM63DCpH1n43bDSGr9DExRCRqdZ7G3ryZg0jBlm1hY0DOT9uqiBrJI4tPgwBTfrZWqDYn5FyhfWawZxMFzHvykjhEIlZM-Y_4bpes3CTZaVCQFtTT5OmSHFx8_dRzD3zi5ZF6YEESPMSyg_0dOkyWP7hRVQA9HEw_QyW9bbnyeXBN3Zf1RnVwEi6_RqPtRlaEjSOpPNyu4kGuouzla7pfs_Z6DDNPB1EuolsJo1m00?></g></svg>